# xmcd CD database file
#
# Track frame offsets:
#	150
#	14782
#	27397
#	43377
#	59000
#	70417
#	88227
#	99845
#	114392
#	128092
#	141650
#	153912
#	166817
#	183810
#	197880
#	208182
#	222315
#	236080
#	246910
#	264127
#	278717
#	289945
#	306722
#	320235
#	332340
#
# Disc length: 4587 seconds
#
# Revision: 1
# Processed by: cddbd v1.4PL0 Copyright (c) Steve Scherf et al.
# Submitted via: Feurio! 1.65 - http://www.feurio.com
#
DISCID=8d11e919
DTITLE=Various Artist - 100 Boleros de Amor #3
DYEAR=1900
DGENRE=
TTITLE0=??? - Si me comprendieras
TTITLE1=??? - Alma vanidosa
TTITLE2=??? - Pruebo
TTITLE3=??? - Despedida
TTITLE4=??? - Cenizas
TTITLE5=??? - Alma mia
TTITLE6=??? - Aunque tengas razon
TTITLE7=??? - Santa
TTITLE8=??? - Comenze a adorarte
TTITLE9=??? - Yo tengo un pecado nuevo
TTITLE10=??? - Que divino
TTITLE11=??? - Irresistible
TTITLE12=??? - Siempre en mi corazon
TTITLE13=??? - Dos cruces
TTITLE14=??? - Vendabal sin rumbo
TTITLE15=??? - Anillo de compromiso
TTITLE16=??? - Luz de luna
TTITLE17=??? - La flor de la canela
TTITLE18=??? - Imagenes
TTITLE19=??? - Escribeme
TTITLE20=??? - Piel canela
TTITLE21=??? - Deuda
TTITLE22=??? - Perfidia
TTITLE23=??? - Gema
TTITLE24=??? - Las perlas de tu boca
EXTD=
EXTT0=
EXTT1=
EXTT2=
EXTT3=
EXTT4=
EXTT5=
EXTT6=
EXTT7=
EXTT8=
EXTT9=
EXTT10=
EXTT11=
EXTT12=
EXTT13=
EXTT14=
EXTT15=
EXTT16=
EXTT17=
EXTT18=
EXTT19=
EXTT20=
EXTT21=
EXTT22=
EXTT23=
EXTT24=
PLAYORDER=
